<svg width="34" height="34" viewBox="0 0 34 34" fill="none" xmlns="http://www.w3.org/2000/svg">
<circle cx="17" cy="17" r="16" stroke="white" stroke-width="2"/>
<path d="M24.0981 7.29413C24.0981 7.29413 22.6498 7.29413 21.1788 9.50001C20.4508 8.77138 18.2374 8.76449 17.5039 8.76449C16.7677 8.76449 14.5556 8.77138 13.827 9.50001C12.3559 7.29413 10.9111 7.29413 10.9111 7.29413C10.1246 9.26839 10.7401 10.6078 10.8883 10.9704C10.1535 11.7059 9.41522 12.4414 9.41522 16.1177C9.41522 19.7939 12.0885 21.6379 15.3008 21.9998C14.8879 22.3589 14.5653 23.4701 14.5653 24.2057C13.7401 24.5731 11.4439 24.926 10.1535 22.7353C10.1535 22.7353 9.41798 21.2649 7.94762 21.2649C7.94762 21.2649 6.47726 21.1264 7.94762 22.0005C7.94762 22.0005 8.68315 22.736 9.41798 24.2064C9.41798 24.2064 10.5409 27.278 14.5653 26.4122C14.5735 27.6082 14.5653 29.3536 14.5653 29.3536H20.4439V24.2064C20.4439 23.6246 20.1227 22.3589 19.7084 22.0005C22.9207 21.6386 25.5905 19.7946 25.5905 16.1183C25.5905 12.4421 24.855 11.7066 24.1202 10.9711C24.2698 10.6078 24.884 9.26839 24.0981 7.29413V7.29413Z" fill="white"/>
</svg>
