<svg width="128" height="128" viewBox="0 0 128 128" fill="none" xmlns="http://www.w3.org/2000/svg">
<path fill-rule="evenodd" clip-rule="evenodd" d="M64 128C99.3462 128 128 99.3462 128 64C128 28.6538 99.3462 0 64 0C28.6538 0 0 28.6538 0 64C0 99.3462 28.6538 128 64 128ZM51.6892 91.767C51.6892 91.767 48.353 93.7958 54.0083 94.3763C60.8163 95.2442 64.4427 95.1005 71.9776 93.6521C73.4919 94.5795 75.0936 95.3562 76.7594 95.9711C59.8073 103.219 38.3553 95.5372 51.6892 91.767ZM49.5193 82.347C49.5193 82.347 45.8956 85.1 51.5482 85.6832C58.9393 86.4074 64.7356 86.5511 74.7387 84.525C75.7116 85.5117 76.9027 86.2559 78.216 86.6976C57.7811 92.7841 34.8835 87.2754 49.5193 82.347ZM89.5183 98.8652C89.5183 98.8652 89.5269 98.8723 89.5419 98.8858L89.4966 98.8652H89.5183ZM89.5419 98.8858C98.3861 102.95 69.8739 111.029 35.2958 105.386C22.686 103.36 41.5233 96.2587 44.8595 98.5777C44.8595 98.5777 43.8424 98.5777 41.9573 99.0117C40.0993 99.3019 34.303 101.187 37.3463 102.489C46.0421 106.259 77.0551 105.391 86.7653 102.489C91.6739 100.988 89.7819 99.1028 89.5419 98.8858ZM53.2569 72.4903L53.2396 72.4945C52.8482 72.4714 46.7788 72.1783 39.4918 75.6828C30.6495 80.0307 61.5215 81.9157 77.6057 77.7116C79.2006 76.6972 81.5196 75.6828 81.5196 75.6828C81.5196 75.6828 74.9937 76.8382 68.4732 77.4187C60.5016 77.9964 51.9523 78.1429 47.6044 77.5624C37.656 76.2856 52.6568 72.6349 53.2396 72.4945L53.2597 72.4958L53.2569 72.4903ZM81.5196 88.2871C97.7503 79.8788 90.2154 71.7688 84.9969 72.7806C83.6949 73.0708 83.1118 73.361 83.1118 73.361C83.1118 73.361 83.5457 72.493 84.5602 72.2028C94.8508 68.5791 102.966 83.0712 81.224 88.721C81.224 88.721 81.3677 88.5773 81.5142 88.2871H81.5196ZM54.8572 111.185C70.5075 112.199 94.4223 110.604 95 103.21C95 103.21 93.8418 106.113 82.1028 108.282C68.7689 110.745 52.2479 110.452 42.5377 108.863C42.5377 108.863 44.5666 110.602 54.8572 111.185ZM61.0814 39.6436C83.7829 21.8195 72.1494 10 72.1494 10C75.278 22.409 66.8906 29.0303 58.6747 35.5162C54.571 38.7557 50.5101 41.9615 47.9485 45.8378C42.6954 53.714 50.3855 62.159 61.0814 71.7277C60.1456 69.5998 58.6982 67.5299 57.2316 65.4326C52.2317 58.2822 47.0091 50.8134 61.0814 39.6436ZM64.6806 75.6676C64.6806 75.6676 71.6227 70.0387 66.18 63.848C47.794 42.6459 86.2549 33.0772 86.2549 33.0772C62.9678 46.5092 66.0199 50.8818 71.4036 58.5948C71.6595 58.9614 71.9207 59.3355 72.1845 59.7186C78.5648 68.5393 64.6806 75.6676 64.6806 75.6676Z" fill="#F89820"/>
</svg>
