<svg width="34" height="34" viewBox="0 0 34 34" fill="none" xmlns="http://www.w3.org/2000/svg">
<path d="M16.8883 0C7.57619 0 0 7.58056 0 16.8983C0 26.2164 7.57619 33.7967 16.8883 33.7967C26.2007 33.7967 33.7772 26.2164 33.7772 16.8983C33.7769 7.58056 26.2005 0 16.8883 0ZM16.8883 32.13C8.49455 32.13 1.66571 25.2972 1.66571 16.8983C1.66571 8.49972 8.49455 1.66667 16.8883 1.66667C25.2821 1.66667 32.1115 8.49972 32.1115 16.8983C32.1112 25.2972 25.2821 32.13 16.8883 32.13Z" fill="#6A040F"/>
<path d="M12.2188 13.3178H8.31049V23.5217H12.2188V13.3178Z" fill="#6A040F"/>
<path d="M10.2258 11.69C11.3183 11.69 12.2039 10.8817 12.2039 9.88447C12.2039 8.88729 11.3183 8.07892 10.2258 8.07892C9.1334 8.07892 8.2478 8.88729 8.2478 9.88447C8.2478 10.8817 9.1334 11.69 10.2258 11.69Z" fill="#6A040F"/>
<path d="M22.0429 13.0872C21.2425 13.0872 20.5643 13.2331 20.0068 13.5244C19.4499 13.8161 18.8997 14.3011 18.3553 14.98V13.3178H14.7157V23.5217H18.624V18.6214C18.624 17.6925 18.7714 17.0492 19.066 16.6903C19.3605 16.3317 19.7442 16.1522 20.2181 16.1522C20.647 16.1522 20.9799 16.2853 21.217 16.5511C21.454 16.8169 21.572 17.27 21.572 17.9108V23.5217H25.4998V17.0364C25.4998 15.6911 25.1938 14.6967 24.5822 14.0528C23.9715 13.4089 23.1245 13.0872 22.0429 13.0872Z" fill="#6A040F"/>
</svg>
