<svg width="129" height="128" viewBox="0 0 129 128" fill="none" xmlns="http://www.w3.org/2000/svg">
<path fill-rule="evenodd" clip-rule="evenodd" d="M17.2498 0C7.86092 0 0.249756 7.61116 0.249756 17V64V111C0.249756 120.389 7.86092 128 17.2498 128H64.2498H111.25C120.639 128 128.25 120.389 128.25 111V64V17C128.25 7.61116 120.639 0 111.25 0H64.2498H17.2498ZM74.506 34.7447L67.6497 18.9992C66.8096 18.757 65.9395 18.6358 65.0655 18.6392C63.4216 18.643 61.8062 19.0716 60.3751 19.8839L32.8005 35.6745C31.4032 36.4738 30.2415 37.6301 29.4335 39.026C28.6254 40.422 28.1998 42.0077 28.1998 43.6222V84.6507C28.1977 85.4858 28.412 86.3071 28.8217 87.0338C29.2314 87.7606 29.8224 88.3678 30.5367 88.7959C31.2509 89.224 32.0638 89.4582 32.8954 89.4755C33.7271 89.4928 34.5489 89.2926 35.2801 88.8946L42.7489 84.8457C43.7732 84.2805 44.6271 83.4491 45.2211 82.4386C45.8151 81.428 46.1272 80.2757 46.1248 79.1023V49.6356C46.1261 48.2933 46.538 46.9839 47.3048 45.8843C48.0715 44.7847 49.1561 43.948 50.4118 43.4873L74.506 34.7447ZM67.7648 108.971L93.2825 101.671C95.1867 101.122 96.8616 99.9664 98.055 98.3788C99.2485 96.7912 99.8959 94.8574 99.8998 92.8684V35.1046C99.9007 33.1106 99.2535 31.1707 98.0566 29.5794C96.8596 27.988 95.1782 26.8321 93.2675 26.2871L67.6628 19.0029C69.63 19.568 71.3612 20.7596 72.5955 22.3982C73.8326 24.0405 74.5032 26.0426 74.506 28.1016L74.506 34.7447V89.4794H46.0202C44.968 89.4907 43.9485 89.8481 43.118 90.4968C42.2876 91.1455 41.6919 92.0497 41.4223 93.0708C41.1528 94.092 41.2242 95.1737 41.6257 96.1501C42.0272 97.1266 42.7366 97.9439 43.6452 98.4769L60.6142 108.134C62.0118 108.932 63.5923 109.35 65.2 109.349C66.065 109.348 66.9253 109.222 67.7543 108.974L74.506 89.4794L74.506 99.9764C74.5115 102.01 73.8548 103.99 72.6359 105.614C71.4193 107.235 69.709 108.414 67.7648 108.971Z" fill="#A4070A"/>
</svg>
