<svg width="129" height="128" viewBox="0 0 129 128" fill="none" xmlns="http://www.w3.org/2000/svg">
<path fill-rule="evenodd" clip-rule="evenodd" d="M0.249756 17C0.249756 7.61116 7.86092 0 17.2498 0H64.4995H111.749C121.138 0 128.749 7.61116 128.749 17V64V111C128.749 120.389 121.138 128 111.749 128H64.4995H17.2498C7.86092 128 0.249756 120.389 0.249756 111V64V17ZM64.2928 20.0007C60.7838 20.017 57.4328 20.3163 54.4842 20.838C45.7981 22.3726 44.2211 25.5845 44.2211 31.5079V39.3308H64.7474V41.9385H44.2211H36.5177C30.5522 41.9385 25.3286 45.5241 23.6948 52.3452C21.8101 60.1637 21.7265 65.0426 23.6948 73.2064C25.1538 79.2832 28.6383 83.6131 34.6038 83.6131H41.6613V74.2351C41.6613 67.4601 47.5232 61.4839 54.4842 61.4839H74.9866C80.6937 61.4839 85.2498 56.7848 85.2498 51.0533V31.5079C85.2498 25.9451 80.5569 21.7664 74.9866 20.838C71.4605 20.2511 67.8018 19.9844 64.2928 20.0007ZM53.1924 26.2926C55.3126 26.2926 57.044 28.0523 57.044 30.216C57.044 32.372 55.3126 34.1155 53.1924 34.1155C51.0645 34.1155 49.3407 32.372 49.3407 30.216C49.3407 28.0523 51.0645 26.2926 53.1924 26.2926ZM87.4497 52.7535V43.6572H95.1374C101.098 43.6572 103.908 48.1161 105.38 54.0428C107.427 62.2742 107.518 68.4449 105.38 74.8616C103.309 81.0946 101.091 85.2472 95.1374 85.2472H84.8951H64.4344V87.8495H84.8951V95.6566C84.8951 101.568 79.8099 104.573 74.6528 106.066C66.8945 108.317 60.6764 107.973 54.1921 106.066C48.7772 104.473 43.9498 101.208 43.9498 95.6566V76.1509C43.9498 70.5382 48.5876 65.7414 54.1921 65.7414H74.6528C81.4708 65.7414 87.4497 59.8058 87.4497 52.7535ZM79.7859 96.9459C79.7859 94.7942 78.0656 93.0543 75.9421 93.0543C73.8261 93.0543 72.0982 94.7942 72.0982 96.9459C72.0982 99.1052 73.8261 100.861 75.9421 100.861C78.0656 100.861 79.7859 99.1052 79.7859 96.9459Z" fill="#5174A4"/>
</svg>
